# xmcd CD database file
#
# Track frame offsets:
#	150
#	18518
#	30040
#	53750
#	69526
#	85239
#	97380
#	112049
#	128812
#	143269
#
# Disc length: 2122 seconds
#
# Revision: 3
# Processed by: cddbd v1.5.2PL0 Copyright (c) Steve Scherf et al.
# Submitted via: CDex 1.51
#
DISCID=7d08480a
DTITLE=Krokus - To You All
DYEAR=1977
DGENRE=Hard Rock
TTITLE0=Highway Song
TTITLE1=To You All
TTITLE2=Festival
TTITLE3=Move It On
TTITLE4=Mr. Greedy
TTITLE5=Lonesome Rider
TTITLE6=Protection
TTITLE7=Trying Hard
TTITLE8=Don't Stop Playing
TTITLE9=Take It, Don't Leave It
EXTD=YEAR: 1977
EXTT0=
EXTT1=
EXTT2=
EXTT3=
EXTT4=
EXTT5=
EXTT6=
EXTT7=
EXTT8=
EXTT9=
PLAYORDER=
